<svg xmlns="http://www.w3.org/2000/svg" viewBox="0 0 100 100">
  <defs>
    <linearGradient id="grad1" x1="0%" y1="0%" x2="100%" y2="100%">
      <stop offset="0%" style="stop-color:#667eea;stop-opacity:1" />
      <stop offset="100%" style="stop-color:#764ba2;stop-opacity:1" />
    </linearGradient>
  </defs>
  <!-- 背景圆 -->
  <circle cx="50" cy="50" r="45" fill="url(#grad1)"/>
  <!-- 叶子/农作物符号 -->
  <path d="M50 25 C35 35, 30 50, 50 70 C70 50, 65 35, 50 25" fill="#fff" opacity="0.9"/>
  <path d="M35 45 C25 50, 25 60, 35 65 C45 60, 45 50, 35 45" fill="#67C23A" opacity="0.8"/>
  <path d="M65 45 C75 50, 75 60, 65 65 C55 60, 55 50, 65 45" fill="#67C23A" opacity="0.8"/>
  <!-- AI芯片符号 -->
  <rect x="42" y="55" width="16" height="16" rx="2" fill="#fff" opacity="0.9"/>
  <line x1="50" y1="55" x2="50" y2="48" stroke="#fff" stroke-width="2"/>
  <line x1="45" y1="71" x2="45" y2="78" stroke="#fff" stroke-width="2"/>
  <line x1="55" y1="71" x2="55" y2="78" stroke="#fff" stroke-width="2"/>
  <line x1="42" y1="63" x2="35" y2="63" stroke="#fff" stroke-width="2"/>
  <line x1="58" y1="63" x2="65" y2="63" stroke="#fff" stroke-width="2"/>
</svg>
